<svg xmlns="http://www.w3.org/2000/svg" xmlns:xlink="http://www.w3.org/1999/xlink" xmlns:lucid="lucid" width="1200" height="720"><g transform="translate(0 0)" lucid:page-tab-id="dQvwUreqzjX."><path d="M0 0h1200v720H0z" fill="#fff"/><path d="M760 80h360v160H760z" stroke="#000" stroke-width="2" fill="#fff"/><use xlink:href="#a" transform="matrix(1,0,0,1,765,85) translate(81.65147569444443 84.32725694444444)"/><use xlink:href="#b" transform="matrix(1,0,0,1,765,85) translate(156.33029513888889 84.32725694444444)"/><path d="M80 80h360v160H80z" stroke="#000" stroke-width="2" fill="#fff"/><use xlink:href="#c" transform="matrix(1,0,0,1,85,85) translate(25.642361111111086 84.32725694444444)"/><use xlink:href="#b" transform="matrix(1,0,0,1,85,85) translate(212.33940972222223 84.32725694444444)"/><path d="M80 480h360v160H80z" stroke="#000" stroke-width="2" fill="#fff"/><use xlink:href="#d" transform="matrix(1,0,0,1,85,485) translate(118.99088541666666 84.32725694444444)"/><use xlink:href="#e" transform="matrix(1,0,0,1,85,485) translate(156.33029513888889 84.32725694444444)"/><path d="M260 479V267.33" stroke="#000" stroke-width="7" fill="none"/><path d="M263.5 480h-7v-1h7zM264.64 266.6h-9.28l4.64-14.27z"/><path d="M269.45 270.1h-18.9L260 241z"/><path d="M280 306.1h332.72v107.8H280z" fill="#fff" fill-opacity="0"/><g><use xlink:href="#f" transform="matrix(1,0,0,1,285,311.1111111111111) translate(0 19.55078125)"/><use xlink:href="#g" transform="matrix(1,0,0,1,285,311.1111111111111) translate(132.021484375 19.55078125)"/><use xlink:href="#h" transform="matrix(1,0,0,1,285,311.1111111111111) translate(190.69769965277777 19.55078125)"/><use xlink:href="#i" transform="matrix(1,0,0,1,285,311.1111111111111) translate(0 56.217447916666664)"/><use xlink:href="#j" transform="matrix(1,0,0,1,285,311.1111111111111) translate(117.35243055555556 56.217447916666664)"/><use xlink:href="#k" transform="matrix(1,0,0,1,285,311.1111111111111) translate(234.70486111111111 56.217447916666664)"/><use xlink:href="#l" transform="matrix(1,0,0,1,285,311.1111111111111) translate(264.04296875 56.217447916666664)"/><use xlink:href="#m" transform="matrix(1,0,0,1,285,311.1111111111111) translate(0 92.88411458333333)"/></g><defs><path d="M102-681c0-398 126-689 513-689 165 0 291 58 379 174s132 287 132 515c-1 318-88 554-298 657-123 61-317 58-438-3-206-104-288-341-288-654zm749 406c94-160 97-656-5-807-57-85-130-132-231-132-104 0-178 47-234 132-101 153-99 655 1 809 57 89 130 138 232 138 109 0 184-49 237-140" id="n"/><path d="M528 20c-247 0-343-132-343-381v-721h180v686c-4 177 45 284 224 277 194-8 279-136 279-336v-627h181c3 360-6 732 6 1082H885c-4-54-7-126-8-185h-3C809-64 714 20 528 20" id="o"/><path d="M839-1102c70 0 148 7 206 17v167c-112-18-268-36-363 15-129 69-208 203-208 395V0H294c-10-367 32-789-52-1082h171c21 75 41 161 48 250h5c67-152 152-270 373-270" id="p"/><g id="a"><use transform="matrix(0.015190972222222224,0,0,0.015190972222222224,0,0)" xlink:href="#n"/><use transform="matrix(0.015190972222222224,0,0,0.015190972222222224,18.669704861111114,0)" xlink:href="#o"/><use transform="matrix(0.015190972222222224,0,0,0.015190972222222224,37.33940972222223,0)" xlink:href="#p"/></g><path d="M614-1226c-167 1-283 53-283 213 0 183 186 193 334 234 230 63 463 120 463 409 0 286-219 387-518 390C309 23 131-98 79-338l185-37c34 165 149 248 351 246 184-2 324-58 324-238 0-203-207-221-372-266-210-57-422-111-422-377 0-267 201-356 470-360 279-5 430 101 480 324l-188 33c-28-141-121-215-293-213" id="q"/><path d="M617-1102c355 0 481 238 477 599H322c5 222 84 388 301 388 144 0 244-59 284-166l158 45C1002-72 854 20 623 20c-342 0-490-220-490-568 0-346 151-554 484-554zm291 461c-18-192-90-328-289-328-194 0-287 128-295 328h584" id="r"/><path d="M715 0H502L69-1082h202c94 253 197 500 285 758 19 57 36 126 52 183 96-335 234-626 350-941h201" id="s"/><g id="b"><use transform="matrix(0.015190972222222224,0,0,0.015190972222222224,0,0)" xlink:href="#q"/><use transform="matrix(0.015190972222222224,0,0,0.015190972222222224,18.669704861111114,0)" xlink:href="#r"/><use transform="matrix(0.015190972222222224,0,0,0.015190972222222224,37.33940972222223,0)" xlink:href="#p"/><use transform="matrix(0.015190972222222224,0,0,0.015190972222222224,56.00911458333334,0)" xlink:href="#s"/><use transform="matrix(0.015190972222222224,0,0,0.015190972222222224,74.67881944444446,0)" xlink:href="#r"/><use transform="matrix(0.015190972222222224,0,0,0.015190972222222224,93.34852430555557,0)" xlink:href="#p"/></g><path d="M655-135c108 0 195-33 260-74v-336H622v-160h479v572C981-54 839 20 639 20c-388 0-526-306-526-701 0-406 129-689 529-689 261 0 392 137 461 331l-171 56c-47-131-122-231-288-231-281 0-330 245-330 533 0 179 28 314 84 407s142 139 257 139" id="t"/><path d="M615-1102c343 0 484 203 482 560-1 347-147 562-488 562-336 0-475-219-479-562-4-349 156-560 485-560zm-8 989c240 0 301-180 301-429 0-245-55-427-290-427-236 0-299 181-299 427 0 243 61 429 288 429" id="u"/><path d="M698-1104c312 3 392 244 392 558 0 315-82 566-392 566-169 0-277-65-331-184h-5c8 188 2 394 4 589H185V-858c0-76-1-156-6-224h175c6 52 9 120 10 178h4c58-122 150-202 330-200zm-49 991c225 0 255-203 255-433 0-225-32-419-253-419-236 0-285 192-285 441 0 237 53 411 283 411" id="v"/><path d="M285-1169c8 382 2 780 4 1169H129v-1349h237c86 239 188 461 253 720 69-258 169-481 255-720h225V0H937c2-390-5-788 6-1169-75 255-170 488-259 729H547c-90-240-185-475-262-729" id="w"/><path d="M684-845H543l-41-639h224" id="x"/><path d="M873-819c-18-114-119-146-250-146-163 0-245 50-245 151 0 151 170 148 294 185 182 54 388 94 388 320 0 240-189 325-439 329-245 4-410-69-454-268l159-31c24 133 136 168 295 165 144-2 270-31 270-171 0-164-195-160-331-202-167-52-350-87-350-299 0-218 173-315 413-313 220 2 373 77 412 260" id="y"/><g id="c"><use transform="matrix(0.015190972222222224,0,0,0.015190972222222224,0,0)" xlink:href="#t"/><use transform="matrix(0.015190972222222224,0,0,0.015190972222222224,18.669704861111114,0)" xlink:href="#p"/><use transform="matrix(0.015190972222222224,0,0,0.015190972222222224,37.33940972222223,0)" xlink:href="#u"/><use transform="matrix(0.015190972222222224,0,0,0.015190972222222224,56.00911458333334,0)" xlink:href="#o"/><use transform="matrix(0.015190972222222224,0,0,0.015190972222222224,74.67881944444446,0)" xlink:href="#v"/><use transform="matrix(0.015190972222222224,0,0,0.015190972222222224,93.34852430555557,0)" xlink:href="#w"/><use transform="matrix(0.015190972222222224,0,0,0.015190972222222224,112.01822916666669,0)" xlink:href="#r"/><use transform="matrix(0.015190972222222224,0,0,0.015190972222222224,130.6879340277778,0)" xlink:href="#x"/><use transform="matrix(0.015190972222222224,0,0,0.015190972222222224,149.3576388888889,0)" xlink:href="#y"/></g><path d="M1034 0L896-382H333L196 0H0l510-1349h217L1228 0h-194zM847-531c-77-225-157-447-231-674-69 231-154 451-232 674h463" id="z"/><use transform="matrix(0.015190972222222224,0,0,0.015190972222222224,0,0)" xlink:href="#z" id="d"/><path d="M604-135c236 0 291-142 291-376v-838h190v859c5 340-142 510-480 510-326 0-463-164-463-492v-877h191v851c-3 222 46 363 271 363" id="A"/><g id="e"><use transform="matrix(0.015190972222222224,0,0,0.015190972222222224,0,0)" xlink:href="#A"/><use transform="matrix(0.015190972222222224,0,0,0.015190972222222224,18.669704861111114,0)" xlink:href="#y"/><use transform="matrix(0.015190972222222224,0,0,0.015190972222222224,37.33940972222223,0)" xlink:href="#r"/><use transform="matrix(0.015190972222222224,0,0,0.015190972222222224,56.00911458333334,0)" xlink:href="#p"/></g><path d="M1121-976c0 225-142 341-344 379L1177 0H957L591-575H353V0H162v-1349h482c281 3 477 100 477 373zM633-726c181-1 296-73 296-247 0-149-101-223-304-223H353v470h280" id="B"/><path d="M631 20c-350 0-501-215-501-562 0-355 162-560 502-560 250 0 399 118 446 323l-192 14c-23-124-109-196-262-196-242 0-305 171-305 415 1 245 61 427 304 427 151 0 248-77 267-215l190 12C1039-107 883 20 631 20" id="C"/><path d="M745-142h380V0H143v-142h422v-798H246v-142h499v940zM545-1292v-192h200v192H545" id="D"/><g id="f"><use transform="matrix(0.01193576388888889,0,0,0.01193576388888889,0,0)" xlink:href="#B"/><use transform="matrix(0.01193576388888889,0,0,0.01193576388888889,14.669053819444446,0)" xlink:href="#r"/><use transform="matrix(0.01193576388888889,0,0,0.01193576388888889,29.338107638888893,0)" xlink:href="#C"/><use transform="matrix(0.01193576388888889,0,0,0.01193576388888889,44.00716145833334,0)" xlink:href="#r"/><use transform="matrix(0.01193576388888889,0,0,0.01193576388888889,58.676215277777786,0)" xlink:href="#D"/><use transform="matrix(0.01193576388888889,0,0,0.01193576388888889,73.34526909722223,0)" xlink:href="#s"/><use transform="matrix(0.01193576388888889,0,0,0.01193576388888889,88.01432291666667,0)" xlink:href="#r"/><use transform="matrix(0.01193576388888889,0,0,0.01193576388888889,102.68337673611111,0)" xlink:href="#y"/></g><path d="M682 16c-209 0-323-80-324-285v-671H190v-142h170l58-282h120v282h432v142H538v652c2 114 60 155 182 155 106 0 209-16 297-34v137C921-4 806 16 682 16" id="E"/><path d="M648-963c-190 6-283 138-283 336V0H185v-1484h181c-2 197 6 404-9 587h3c62-120 159-205 339-205 242 0 351 135 350 381V0H868v-695c1-168-57-273-220-268" id="F"/><g id="g"><use transform="matrix(0.01193576388888889,0,0,0.01193576388888889,0,0)" xlink:href="#E"/><use transform="matrix(0.01193576388888889,0,0,0.01193576388888889,14.669053819444446,0)" xlink:href="#F"/><use transform="matrix(0.01193576388888889,0,0,0.01193576388888889,29.338107638888893,0)" xlink:href="#r"/></g><path d="M706-1102c241 0 344 136 343 381V0H868v-695c1-168-57-273-220-268-190 6-283 138-283 336V0H185c-3-360 6-732-6-1082h170c4 54 7 126 8 185h3c63-121 164-204 346-205" id="G"/><g id="h"><use transform="matrix(0.01193576388888889,0,0,0.01193576388888889,0,0)" xlink:href="#B"/><use transform="matrix(0.01193576388888889,0,0,0.01193576388888889,14.669053819444446,0)" xlink:href="#r"/><use transform="matrix(0.01193576388888889,0,0,0.01193576388888889,29.338107638888893,0)" xlink:href="#y"/><use transform="matrix(0.01193576388888889,0,0,0.01193576388888889,44.00716145833334,0)" xlink:href="#v"/><use transform="matrix(0.01193576388888889,0,0,0.01193576388888889,58.676215277777786,0)" xlink:href="#u"/><use transform="matrix(0.01193576388888889,0,0,0.01193576388888889,73.34526909722223,0)" xlink:href="#G"/><use transform="matrix(0.01193576388888889,0,0,0.01193576388888889,88.01432291666667,0)" xlink:href="#y"/><use transform="matrix(0.01193576388888889,0,0,0.01193576388888889,102.68337673611111,0)" xlink:href="#r"/></g><path d="M1000-272c3 95 12 159 101 161 21 0 41-3 59-7V-6c-44 10-86 16-139 16-141 2-191-84-197-217h-6C748-76 648 20 446 20c-207 0-318-120-318-322 0-266 194-348 454-354l236-4c12-191-40-305-222-305-140 0-220 47-232 172l-188-17c33-204 181-292 423-292 255 0 401 118 401 364v466zm-683-27c0 109 63 184 175 182 166-3 259-96 306-217 24-65 20-120 20-200-232 7-501-28-501 235" id="H"/><path d="M1048-32c-2 300-135 456-433 456-222-1-358-88-400-267l184-25c22 99 100 157 222 156 184-2 248-125 248-315 0-64 3-133-2-194C807-100 706-13 524-12c-306 0-381-228-381-537 0-318 85-550 400-550 164 0 271 83 325 202h3c1-60 3-134 12-185h171c-13 339-4 702-6 1050zM585-145c210-8 284-178 284-406 0-192-52-331-177-392-33-16-69-22-104-22-223 2-259 184-259 414 0 229 31 415 256 406" id="I"/><g id="i"><use transform="matrix(0.01193576388888889,0,0,0.01193576388888889,0,0)" xlink:href="#w"/><use transform="matrix(0.01193576388888889,0,0,0.01193576388888889,14.669053819444446,0)" xlink:href="#r"/><use transform="matrix(0.01193576388888889,0,0,0.01193576388888889,29.338107638888893,0)" xlink:href="#y"/><use transform="matrix(0.01193576388888889,0,0,0.01193576388888889,44.00716145833334,0)" xlink:href="#y"/><use transform="matrix(0.01193576388888889,0,0,0.01193576388888889,58.676215277777786,0)" xlink:href="#H"/><use transform="matrix(0.01193576388888889,0,0,0.01193576388888889,73.34526909722223,0)" xlink:href="#I"/><use transform="matrix(0.01193576388888889,0,0,0.01193576388888889,88.01432291666667,0)" xlink:href="#r"/></g><path d="M709-1193V0H519v-1193H76v-156h1076v156H709" id="J"/><g id="j"><use transform="matrix(0.01193576388888889,0,0,0.01193576388888889,0,0)" xlink:href="#J"/><use transform="matrix(0.01193576388888889,0,0,0.01193576388888889,14.669053819444446,0)" xlink:href="#F"/><use transform="matrix(0.01193576388888889,0,0,0.01193576388888889,29.338107638888893,0)" xlink:href="#p"/><use transform="matrix(0.01193576388888889,0,0,0.01193576388888889,44.00716145833334,0)" xlink:href="#u"/><use transform="matrix(0.01193576388888889,0,0,0.01193576388888889,58.676215277777786,0)" xlink:href="#o"/><use transform="matrix(0.01193576388888889,0,0,0.01193576388888889,73.34526909722223,0)" xlink:href="#I"/><use transform="matrix(0.01193576388888889,0,0,0.01193576388888889,88.01432291666667,0)" xlink:href="#F"/></g><use transform="matrix(0.01193576388888889,0,0,0.01193576388888889,0,0)" xlink:href="#H" id="k"/><path d="M162 0v-1349h919v156H353v422h668v154H353v461h769V0H162" id="K"/><g id="l"><use transform="matrix(0.01193576388888889,0,0,0.01193576388888889,0,0)" xlink:href="#t"/><use transform="matrix(0.01193576388888889,0,0,0.01193576388888889,14.669053819444446,0)" xlink:href="#K"/><use transform="matrix(0.01193576388888889,0,0,0.01193576388888889,29.338107638888893,0)" xlink:href="#J"/></g><path d="M530 26c-303-6-392-228-392-558 0-187 33-329 98-424s162-142 293-142c178 0 273 69 334 184 1-56 3-122 12-169h175c-6 88-6 180-6 282V425H863c1-202-4-411 4-607h-2C805-59 713 29 530 26zm47-139c234 0 286-193 286-441 0-238-55-411-284-411-223 0-255 198-255 427 0 227 33 425 253 425" id="L"/><g id="m"><use transform="matrix(0.01193576388888889,0,0,0.01193576388888889,0,0)" xlink:href="#B"/><use transform="matrix(0.01193576388888889,0,0,0.01193576388888889,14.669053819444446,0)" xlink:href="#r"/><use transform="matrix(0.01193576388888889,0,0,0.01193576388888889,29.338107638888893,0)" xlink:href="#L"/><use transform="matrix(0.01193576388888889,0,0,0.01193576388888889,44.00716145833334,0)" xlink:href="#o"/><use transform="matrix(0.01193576388888889,0,0,0.01193576388888889,58.676215277777786,0)" xlink:href="#r"/><use transform="matrix(0.01193576388888889,0,0,0.01193576388888889,73.34526909722223,0)" xlink:href="#y"/><use transform="matrix(0.01193576388888889,0,0,0.01193576388888889,88.01432291666667,0)" xlink:href="#E"/></g></defs></g></svg>